<svg xmlns="http://www.w3.org/2000/svg" viewBox="0 0 48 48" width="48px" height="48px">
  <path fill="#3776AB" d="M6,4v40h36V4H6z M33.3,16.2l-2.5,1.4c-0.8-1.4-2.2-2.4-3.8-2.7v-3.1h-2.8v3.1c-1.6,0.3-3,1.3-3.8,2.7l-2.5-1.4c1.2-2.2,3.5-3.7,6.3-3.7S32.1,14,33.3,16.2z M24,28.8c-1.7,0-3.3-0.6-4.6-1.6l2.1-2.1c0.9,0.8,2,1.3,3.2,1.3s2.3-0.5,3.2-1.3l2.1,2.1C27.3,28.2,25.7,28.8,24,28.8z M25.9,23.7c0.8,0.8,1.9,1.2,3.1,1.2c1.1,0,2.2-0.4,3.1-1.2l2.1,2.1c-1.5,1.5-3.5,2.4-5.6,2.4s-4.1-0.8-5.6-2.4L25.9,23.7z M24,12.7c-2.8,0-5.1,1.5-6.3,3.7L15.3,16c0.8-1.4,2.2-2.4,3.8-2.7v-3.1h2.8v3.1c1.6,0.3,3,1.3,3.8,2.7l2.5-1.4C29.1,14.2,26.8,12.7,24,12.7z"/>
</svg>
